<svg xmlns="http://www.w3.org/2000/svg" version="1.0" preserveAspectRatio="xMidYMid meet" viewBox="133.64 215 637.34 377">  <g transform="translate(0.000000,819.000000) scale(0.100000,-0.100000)" fill="#d71414" stroke="none"> <path d="M1386 5893 c8 -145 8 -500 -1 -993 -3 -135 -7 -378 -10 -540 -3 -162 -9 -315 -14 -340 -16 -77 -32 -372 -21 -389 4 -7 86 -8 250 -3 135 4 290 4 345 0 541 -35 938 -38 1106 -9 160 28 245 51 342 95 32 14 63 26 70 26 14 0 147 90 182 123 102 97 165 243 165 381 0 177 -64 309 -197 408 -29 21 -55 38 -59 38 -4 0 -28 13 -53 28 -48 30 -208 90 -276 103 -22 5 -87 16 -144 26 -95 17 -127 32 -103 47 5 3 52 10 103 16 52 6 117 16 144 24 28 8 70 19 95 24 60 14 192 77 250 118 80 57 139 137 171 227 30 88 35 138 19 230 -13 80 -41 132 -113 209 -101 108 -255 191 -407 219 -278 51 -274 51 -895 55 -324 2 -659 8 -744 14 -85 5 -168 10 -184 10 l-30 0 9 -147z m1171 -134 c199 -29 301 -153 303 -365 0 -133 -38 -238 -113 -314 -72 -72 -108 -83 -289 -84 -86 -1 -159 2 -163 6 -9 9 -9 372 0 573 9 196 8 195 111 195 40 0 108 -5 151 -11z m93 -1054 c147 -72 214 -214 204 -434 -3 -77 -27 -174 -58 -241 -17 -38 -91 -107 -132 -125 -70 -29 -165 -45 -269 -45 -97 0 -106 2 -119 23 -12 18 -14 68 -11 307 6 367 12 490 25 525 l11 28 147 -6 c133 -4 152 -7 202 -32z"/> <path d="M4141 5961 c-12 -8 -13 -108 -8 -683 4 -392 3 -689 -2 -711 -12 -52 -45 -84 -100 -100 -50 -14 -62 -37 -41 -77 11 -20 17 -20 298 -18 l287 3 3 35 c4 40 -16 60 -59 60 -33 0 -79 19 -97 40 -7 8 -22 33 -32 55 -17 35 -20 63 -20 221 0 136 3 185 14 199 11 16 31 19 149 23 74 2 147 2 161 -2 28 -7 66 -66 157 -245 43 -85 54 -116 57 -165 3 -54 1 -64 -20 -83 -12 -12 -39 -25 -58 -30 -33 -9 -35 -11 -35 -54 l0 -44 205 -2 c113 0 236 -6 274 -13 133 -21 227 6 294 87 73 87 113 181 152 358 5 22 13 53 19 68 6 16 11 39 11 52 0 37 30 104 52 116 14 8 25 7 43 -5 19 -13 26 -31 39 -113 9 -54 21 -124 27 -156 5 -32 13 -96 16 -142 6 -83 6 -84 -25 -114 -21 -22 -40 -31 -62 -31 -46 0 -70 -16 -70 -48 0 -58 -5 -57 287 -54 147 2 276 5 286 8 22 7 23 57 1 78 -8 9 -26 16 -40 16 -30 0 -88 58 -111 109 -21 49 -38 138 -78 401 -5 32 -14 84 -50 310 -37 232 -45 278 -50 310 -2 19 -9 63 -15 98 -11 66 -1 102 34 131 11 9 16 30 16 62 0 39 -4 49 -20 54 -11 4 -125 4 -253 0 -244 -6 -282 -13 -357 -61 -100 -63 -150 -173 -150 -332 0 -184 83 -338 223 -412 26 -14 49 -30 52 -37 6 -18 -30 -183 -82 -368 -24 -89 -80 -196 -120 -232 -114 -101 -228 -25 -388 257 -69 120 -190 340 -242 440 -25 47 -58 108 -73 135 -30 55 -79 146 -132 245 -39 72 -133 243 -168 305 -12 22 -27 46 -32 53 -12 14 -145 17 -167 3z m1576 -106 c25 -18 48 -92 58 -185 4 -36 18 -132 32 -215 14 -82 28 -185 30 -227 l5 -78 -41 0 c-91 0 -199 91 -259 218 -35 75 -36 80 -36 197 0 108 3 126 26 175 28 59 55 89 103 114 38 20 55 20 82 1z m-1289 -307 c23 -46 58 -112 78 -148 117 -210 127 -233 108 -247 -24 -18 -218 -18 -231 0 -11 13 -26 437 -17 462 3 8 9 15 13 15 3 0 25 -37 49 -82z"/> <path d="M7430 5814 c-8 -3 -40 -12 -70 -22 -72 -22 -122 -53 -192 -120 -65 -61 -66 -61 -70 38 l-3 65 -265 0 -265 0 0 -706 c0 -681 1 -708 19 -728 18 -20 28 -21 262 -21 236 0 289 6 306 33 4 7 8 186 8 398 l0 386 31 42 c39 55 110 88 208 97 114 11 109 -1 117 270 7 254 4 275 -44 273 -15 0 -34 -3 -42 -5z"/> <path d="M5117 4303 l-118 -4 4 -147 c2 -81 9 -217 15 -302 25 -341 35 -492 39 -634 5 -137 3 -153 -16 -192 -43 -86 -126 -124 -269 -124 -87 0 -102 3 -147 28 -98 53 -116 128 -135 552 -5 118 -14 262 -19 320 -5 58 -13 178 -16 268 -6 130 -11 166 -24 181 -15 16 -28 17 -204 7 -202 -12 -212 -15 -203 -66 3 -14 8 -90 11 -170 3 -80 10 -201 16 -270 5 -69 14 -201 19 -295 25 -469 35 -539 93 -640 60 -105 167 -186 300 -226 81 -25 274 -34 398 -20 252 29 426 143 501 329 20 50 23 78 26 232 2 96 -1 236 -7 310 -6 74 -16 230 -21 345 -6 116 -15 252 -20 303 -6 52 -7 98 -4 104 7 12 54 -30 54 -49 0 -7 7 -13 15 -13 12 0 15 15 15 73 0 39 -5 79 -10 87 -10 17 -79 20 -293 13z"/> <path d="M5980 4090 l-435 -5 1 -50 c5 -403 8 -500 17 -555 5 -36 12 -132 16 -215 l6 -150 420 -1 c231 0 433 2 448 4 l29 5 -7 81 c-4 45 -11 160 -15 256 -4 96 -8 143 -8 104 -3 -107 5 -103 -222 -106 l-195 -3 -5 -82 c-7 -107 -40 -159 -115 -185 -100 -33 -180 -12 -234 63 l-31 42 0 332 c0 293 2 334 16 346 13 10 96 14 393 15 l376 3 3 44 c2 27 -2 47 -10 53 -8 5 -193 7 -448 4z"/> <path d="M7530 4028 c-57 -24 -106 -28 -340 -33 -135 -3 -305 -8 -377 -11 -123 -6 -133 -7 -133 -26 0 -12 12 -24 34 -33 19 -8 36 -24 39 -36 3 -12 6 -94 5 -183 0 -89 3 -354 7 -589 l7 -428 -58 -53 c-52 -48 -56 -56 -44 -71 13 -16 47 -17 415 -12 332 4 404 2 420 -9 28 -21 41 -18 87 24 99 89 141 170 105 200 -10 9 -26 2 -67 -29 -126 -94 -115 -92 -353 -93 l-212 -1 -6 115 c-4 63 -10 241 -13 395 -5 220 -4 284 6 298 10 14 34 18 116 23 104 5 142 1 142 -18 0 -5 14 -30 30 -55 17 -24 30 -48 30 -52 0 -4 9 -16 20 -26 19 -17 21 -17 39 -1 28 25 34 81 26 232 -6 112 -10 134 -23 134 -8 0 -43 -26 -76 -58 l-61 -59 -115 -6 c-85 -5 -117 -4 -126 6 -18 19 -25 272 -9 294 12 16 34 18 172 21 l158 4 30 -31 c50 -51 67 -43 125 56 62 105 62 137 0 111z"/> <path d="M6275 3749 c-181 -6 -235 -14 -235 -34 0 -20 50 -25 226 -25 l163 0 15 -27 c15 -28 15 -28 15 22 1 28 -3 55 -7 60 -4 6 -68 8 -177 4z"/> <path d="M3137 2993 c-18 -17 -3 -83 18 -83 20 0 27 34 14 64 -12 26 -20 31 -32 19z"/> <path d="M3446 2855 c-13 -14 -15 -49 -14 -228 0 -124 5 -217 11 -224 14 -18 83 -16 101 3 14 13 16 41 15 162 0 84 4 159 10 175 17 43 13 92 -7 110 -24 22 -95 22 -116 2z"/> <path d="M1807 2833 c-13 -12 -7 -62 9 -77 20 -20 38 -20 59 0 18 18 13 63 -8 76 -15 10 -51 10 -60 1z"/> <path d="M2532 2771 c-16 -10 -17 -29 -3 -120 13 -83 8 -111 -19 -111 -24 0 -27 11 -35 119 -7 90 -8 91 -34 91 -49 0 -52 -8 -45 -118 8 -111 24 -154 69 -174 20 -9 34 -9 60 1 18 6 45 9 59 5 17 -4 35 0 51 10 20 13 25 25 25 59 0 23 -7 64 -15 91 -8 27 -15 70 -15 97 0 33 -4 49 -16 53 -22 9 -67 7 -82 -3z"/> <path d="M2995 2761 c-2 -5 -18 -11 -34 -14 -32 -7 -44 -27 -35 -63 7 -27 27 -30 64 -10 17 10 30 11 42 5 35 -19 15 -49 -31 -49 -10 0 -30 -9 -45 -21 -23 -18 -24 -23 -14 -42 7 -12 15 -42 18 -67 5 -42 7 -45 38 -48 22 -2 41 3 53 14 17 16 20 16 45 -1 38 -25 47 -10 60 108 14 119 7 141 -46 168 -41 20 -107 31 -115 20z m58 -193 c2 -7 0 -23 -4 -36 -11 -29 -52 -27 -57 2 -7 32 50 62 61 34z"/> <path d="M2103 2753 c-12 -2 -34 -18 -49 -36 -22 -26 -25 -37 -20 -71 8 -48 19 -63 63 -81 38 -16 47 -50 11 -42 -13 2 -30 7 -38 11 -25 10 -42 -9 -43 -48 -1 -42 8 -53 49 -65 61 -17 194 62 194 116 0 21 -53 75 -88 90 -43 18 -37 39 11 35 28 -3 38 1 47 19 30 55 -38 91 -137 72z"/> <path d="M1534 2743 c-20 -14 -34 -51 -34 -90 0 -88 -29 -110 -42 -32 -13 76 -27 99 -59 99 -15 0 -30 -3 -33 -8 -2 -4 2 -32 11 -62 8 -30 19 -74 24 -97 15 -77 50 -124 91 -123 27 1 51 31 59 72 4 24 13 66 20 93 7 28 13 73 13 100 1 43 -2 50 -19 53 -11 1 -25 -1 -31 -5z"/> <path d="M1822 2718 c-13 -13 -16 -129 -5 -252 l6 -77 41 3 41 3 -3 150 c-3 136 -5 152 -24 168 -24 20 -39 22 -56 5z"/> <path d="M3114 2316 c-7 -20 2 -46 16 -46 13 0 13 47 0 55 -6 3 -13 -1 -16 -9z"/> </g> </svg>